<svg width="26" height="26" viewBox="0 0 26 26" fill="none" xmlns="http://www.w3.org/2000/svg">
<path d="M6.5116 4.91814L6.08595 4.4925C5.6603 4.06685 4.97271 4.07776 4.55798 4.4925L4.54707 4.50341C4.12142 4.92906 4.12142 5.61664 4.54707 6.03138L4.97271 6.45703C5.39836 6.88267 6.07503 6.88267 6.50068 6.45703L6.5116 6.44611C6.93724 6.03138 6.93724 5.33288 6.5116 4.91814ZM3.19372 11.8595H2.08049C1.48022 11.8595 1 12.3397 1 12.94V12.9509C1 13.5512 1.48022 14.0314 2.08049 14.0314H3.18281C3.794 14.0423 4.27422 13.5621 4.27422 12.9618V12.9509C4.27422 12.3397 3.794 11.8595 3.19372 11.8595ZM13.0164 1H13.0055C12.3943 1 11.9141 1.48022 11.9141 2.08049V3.12824C11.9141 3.72851 12.3943 4.20873 12.9945 4.20873H13.0055C13.6166 4.21965 14.0969 3.73943 14.0969 3.13915V2.08049C14.0969 1.48022 13.6166 1 13.0164 1ZM21.4638 4.50341C21.0382 4.07776 20.3506 4.07776 19.925 4.4925L19.4993 4.91814C19.0737 5.34379 19.0737 6.03138 19.4993 6.44611L19.5102 6.45703C19.9359 6.88267 20.6235 6.88267 21.0382 6.45703L21.4638 6.03138C21.8895 5.60573 21.8895 4.92906 21.4638 4.50341ZM19.4884 20.9836L19.9141 21.4093C20.3397 21.8349 21.0273 21.8349 21.4529 21.4093C21.8786 20.9836 21.8786 20.296 21.4529 19.8704L21.0273 19.4447C20.6016 19.0191 19.9141 19.03 19.4993 19.4447C19.0628 19.8813 19.0628 20.558 19.4884 20.9836ZM21.7367 12.94V12.9509C21.7367 13.5512 22.2169 14.0314 22.8172 14.0314H23.9195C24.5198 14.0314 25 13.5512 25 12.9509V12.94C25 12.3397 24.5198 11.8595 23.9195 11.8595H22.8172C22.2169 11.8595 21.7367 12.3397 21.7367 12.94ZM13.0055 6.40246C9.39291 6.40246 6.45703 9.33834 6.45703 12.9509C6.45703 16.5634 9.39291 19.4993 13.0055 19.4993C16.618 19.4993 19.5539 16.5634 19.5539 12.9509C19.5539 9.33834 16.618 6.40246 13.0055 6.40246ZM12.9945 24.9018H13.0055C13.6057 24.9018 14.0859 24.4216 14.0859 23.8213V22.7735C14.0859 22.1733 13.6057 21.693 13.0055 21.693H12.9945C12.3943 21.693 11.9141 22.1733 11.9141 22.7735V23.8213C11.9141 24.4216 12.3943 24.9018 12.9945 24.9018ZM4.54707 21.3984C4.97271 21.824 5.6603 21.824 6.08595 21.3984L6.5116 20.9727C6.93724 20.5471 6.92633 19.8595 6.5116 19.4447L6.50068 19.4338C6.07503 19.0082 5.38745 19.0082 4.9618 19.4338L4.53615 19.8595C4.12142 20.296 4.12142 20.9727 4.54707 21.3984Z" fill="white"/>
</svg>
